<?xml version="1.0" encoding="UTF-8" standalone="no"?>
<svg
   id="Calque_1"
   version="1.2"
   viewBox="0 0 211.15001 301.25132"
   sodipodi:docname="Seido_Logo_Small_Colour.svg"
   inkscape:version="1.4.2 (ebf0e940, 2025-05-08)"
   width="211.15001"
   height="301.25131"
   xmlns:inkscape="http://www.inkscape.org/namespaces/inkscape"
   xmlns:sodipodi="http://sodipodi.sourceforge.net/DTD/sodipodi-0.dtd"
   xmlns="http://www.w3.org/2000/svg"
   xmlns:svg="http://www.w3.org/2000/svg">
  <defs
     id="defs3" />
  <sodipodi:namedview
     id="namedview3"
     pagecolor="#ffffff"
     bordercolor="#000000"
     borderopacity="0.25"
     inkscape:showpageshadow="2"
     inkscape:pageopacity="0.0"
     inkscape:pagecheckerboard="0"
     inkscape:deskcolor="#d1d1d1"
     inkscape:zoom="1.2425135"
     inkscape:cx="182.29178"
     inkscape:cy="193.96168"
     inkscape:window-width="1512"
     inkscape:window-height="965"
     inkscape:window-x="0"
     inkscape:window-y="44"
     inkscape:window-maximized="0"
     inkscape:current-layer="Calque_1" />
  <!-- Generator: Adobe Illustrator 29.7.1, SVG Export Plug-In . SVG Version: 2.1.1 Build 8)  -->
  <g
     id="g2"
     transform="translate(-104.93,0.55106094)"
     style="stroke-width:15;stroke-dasharray:none">
    <path
       d="m 115.3049,288.9737 c -2.41446,8.85302 39.40901,-23.38167 50.0951,-28.0437 21.33,-11.56 42.25,-18.9 42.25,-18.9 15.29,-5.36 18.24,-4.87 40.29,-11.46 47.88,-14.29 53.71,-22.48 56.01,-27.92 1.51,-3.56 2.86,-9.16 1.21,-17.35 -0.86,-4.28 -2.93,-8.22 -5.87,-11.46 -4.5,-4.97 -9.94,-10.32 -16.41,-15.67 -8.27,-6.84 -16.24,-12 -23.1,-15.87 V 53.4 L 186.74,9.92 C 186.1,9.54 185.3,9.55 184.66,9.94 l -69.53,43.11 v 239.95904"
       fill="none"
       stroke="#000"
       stroke-miterlimit="10"
       stroke-width="12"
       id="path1"
       style="fill:none;fill-opacity:1;stroke:#4a66e6;stroke-width:15;stroke-dasharray:none;stroke-opacity:1"
       sodipodi:nodetypes="cccccccccccccc" />
    <line
       x1="305.88"
       y1="193.89"
       x2="305.88"
       y2="298.76001"
       fill="none"
       stroke="#000"
       stroke-miterlimit="10"
       stroke-width="12"
       id="line1"
       style="stroke:#4a66e6;stroke-width:15;stroke-dasharray:none;stroke-opacity:1" />
    <line
       x1="185.7"
       y1="9.3000002"
       x2="185.7"
       y2="253.12"
       fill="none"
       stroke="#000"
       stroke-miterlimit="10"
       stroke-width="12"
       id="line2"
       style="stroke:#4a66e6;stroke-width:15;stroke-dasharray:none;stroke-opacity:1" />
  </g>
  <g
     id="g3"
     transform="translate(-104.93,0.55106094)" />
</svg>
